HIERARCHY
ROOT Hips
{
  OFFSET 265.287 66.7526 -254.649
  CHANNELS 6 Xposition Yposition Zposition Zrotation Xrotation Yrotation
  JOINT LeftUpLeg
  {
    OFFSET 8.64259 1.95398 -2.38835
    CHANNELS 3 Zrotation Xrotation Yrotation
    JOINT LeftLeg
    {
      OFFSET 43.7702 0 0
      CHANNELS 3 Zrotation Xrotation Yrotation
      JOINT LeftFoot
      {
        OFFSET 40.6238 0 0
        CHANNELS 3 Zrotation Xrotation Yrotation
        JOINT LeftToeBase
        {
          OFFSET 12.7242 0 0
          CHANNELS 3 Zrotation Xrotation Yrotation
          End Site
          {
            OFFSET 0 0 0
          }
        }
      }
    }
  }
  JOINT RightUpLeg
  {
    OFFSET -8.2249 1.95398 -2.59336
    CHANNELS 3 Zrotation Xrotation Yrotation
    JOINT RightLeg
    {
      OFFSET 43.5653 0 0
      CHANNELS 3 Zrotation Xrotation Yrotation
      JOINT RightFoot
      {
        OFFSET 40.6238 0 0
        CHANNELS 3 Zrotation Xrotation Yrotation
        JOINT RightToeBase
        {
          OFFSET 12.7242 0 0
          CHANNELS 3 Zrotation Xrotation Yrotation
          End Site
          {
            OFFSET 0 0 0
          }
        }
      }
    }
  }
  JOINT Spine
  {
    OFFSET 0.165834 0.87714 6.61349
    CHANNELS 3 Zrotation Xrotation Yrotation
    JOINT Spine1
    {
      OFFSET 7.38963 1.71661e-005 0
      CHANNELS 3 Zrotation Xrotation Yrotation
      JOINT Spine2
      {
        OFFSET 11.9445 1.14441e-005 0
        CHANNELS 3 Zrotation Xrotation Yrotation
        JOINT Spine3
        {
          OFFSET 14.7254 4.19617e-005 0
          CHANNELS 3 Zrotation Xrotation Yrotation
          JOINT Spine4
          {
            OFFSET 10.9679 0 0
            CHANNELS 3 Zrotation Xrotation Yrotation
            JOINT RightShoulder
            {
              OFFSET 2.46616 -1.6653 3.69651
              CHANNELS 3 Zrotation Xrotation Yrotation
              JOINT RightArm
              {
                OFFSET 13.0012 0 0
                CHANNELS 3 Zrotation Xrotation Yrotation
                JOINT RightForeArm
                {
                  OFFSET 28.7848 1.52588e-005 0
                  CHANNELS 3 Zrotation Xrotation Yrotation
                  JOINT RightHand
                  {
                    OFFSET 26.5688 1.52588e-005 0
                    CHANNELS 3 Zrotation Xrotation Yrotation
                    End Site
                    {
                      OFFSET 0 0 0
                    }
                  }
                }
              }
            }
            JOINT LeftShoulder
            {
              OFFSET 2.38034 -1.29275 -3.7523
              CHANNELS 3 Zrotation Xrotation Yrotation
              JOINT LeftArm
              {
                OFFSET 16.3182 6.10351e-005 0
                CHANNELS 3 Zrotation Xrotation Yrotation
                JOINT LeftForeArm
                {
                  OFFSET 27.0901 0 0
                  CHANNELS 3 Zrotation Xrotation Yrotation
                  JOINT LeftHand
                  {
                    OFFSET 24.5451 1.52588e-005 0
                    CHANNELS 3 Zrotation Xrotation Yrotation
                    End Site
                    {
                      OFFSET 0 0 0
                    }
                  }
                }
              }
            }
            JOINT Neck
            {
              OFFSET 5.0226 -0.0266342 0
              CHANNELS 3 Zrotation Xrotation Yrotation
              JOINT Head
              {
                OFFSET 6.69364 2.86102e-005 0
                CHANNELS 3 Zrotation Xrotation Yrotation
                End Site
                {
                  OFFSET 0 0 0
                }
              }
            }
          }
        }
      }
    }
  }
}
MOTION
Frames:	13
Frame Time:	0.0416667
-130.971 13.5301 47.2473 -6.99262 -9.33244 -94.663 -176.741 6.31367 99.179 -24.2374 8.21286 6.23748 57.4437 0.152874 -22.2718 69.3604 -14.0156 -5.06198 169.673 8.20656 68.8041 -32.4221 0.739755 -4.84774 67.8544 4.73697 40.0681 72.9421 0.363218 24.256 -0.225156 7.26155 -89.7243 12.3512 -0.316351 0.586407 0.680163 -0.290222 0.599734 -21.8546 -0.477978 0.464219 -1.84192 -0.47797 0.464225 104.538 -1.09272 -72.9273 58.2665 65.1313 -78.4433 -11.8518 -14.5656 -111.451 -11.7643 -0.348665 -1.85525 -76.4742 -11.0754 100.523 -57.8311 -46.3082 -92.3573 26.2752 -0.351964 -110.664 -1.97607 -0.0847957 -2.71262 16.5122 -2.15991 21.8774 15.8685 -10.5492 -13.4208 
-130.946 13.5408 47.2788 -7.15687 -9.31831 -94.6514 -176.77 6.10975 99.1963 -24.2216 7.97276 6.27351 57.65 0.144704 -22.666 65.3265 -12.6918 -5.74764 169.572 8.02614 68.7665 -32.4987 -0.0854244 -4.80677 68.3957 4.43968 39.4164 73.325 0.105555 23.2533 -0.206038 7.26022 -89.7444 12.3539 -0.287957 0.5434 0.682822 -0.263791 0.555535 -21.852 -0.437964 0.431711 -1.83931 -0.437977 0.43171 104.487 -1.10403 -73.1289 56.9174 65.5972 -77.4358 -12.8504 -14.2668 -111.614 -12.2069 -0.348372 -1.9245 -77.356 -9.12768 98.147 -61.3239 -49.3538 -92.7297 24.8687 1.04388 -110.717 -1.89432 -0.0815733 -2.61874 15.7907 -2.0204 23.1886 16.2617 -10.9332 -14.6176 
-130.983 13.5953 47.3635 -7.41965 -9.17486 -94.9095 -176.983 5.75799 98.8954 -24.0778 7.98546 6.26184 57.4773 0.212366 -22.4054 66.3934 -13.1427 -5.94858 169.32 8.11608 68.4377 -32.9594 -0.913998 -4.71664 68.9777 4.11327 37.9363 73.0772 -0.0436406 22.7771 -0.160013 7.25645 -89.7485 12.3612 -0.198494 0.524725 0.690176 -0.175209 0.532979 -21.8445 -0.347024 0.44081 -1.83182 -0.347017 0.440803 104.543 -0.67531 -72.787 54.8829 65.2957 -75.5495 -13.3679 -13.8774 -111.637 -12.4978 -0.356593 -1.92713 -76.8891 -9.49802 99.4678 -62.2539 -46.8888 -92.8126 26.4377 0.740067 -110.236 -2.84554 -0.0948439 -3.91245 16.5271 -1.96283 22.171 13.006 -9.92443 -12.3225 
-130.992 13.6364 47.499 -7.72277 -9.07493 -95.2695 -177.375 5.37911 98.5869 -23.9981 6.41144 6.36086 57.6771 0.196529 -24.4386 64.804 -12.6122 -6.23196 169.014 8.0928 67.9567 -33.1806 -0.831621 -4.66425 69.7765 3.85185 37.4555 73.511 -0.212162 22.1017 -0.139729 7.23165 -89.7633 12.4106 -0.165104 0.491549 0.739623 -0.143303 0.498354 -21.7951 -0.305211 0.419197 -1.7824 -0.305207 0.419209 104.382 -0.0799166 -73.2467 51.9474 65.5439 -72.9073 -13.0197 -13.8405 -111.437 -13.3487 -0.390657 -1.8349 -76.7019 -9.38752 100.002 -64.8768 -45.6182 -92.5622 29.2439 -0.703924 -112.173 -4.87722 -0.0818124 -4.69702 14.1975 -2.09629 23.7034 14.4029 -10.3546 -13.3547 
-131.014 13.7023 47.7688 -8.03762 -8.75676 -95.8323 -177.749 4.85909 97.7692 -24.1404 7.79827 6.40015 57.5527 0.207997 -22.1154 65.6029 -12.8797 -6.09414 168.392 8.37579 66.9214 -33.3636 -0.269436 -4.4613 69.565 3.99773 38.38 73.0911 -0.387011 21.5635 -0.0996839 7.17911 -89.796 12.5158 -0.100732 0.419258 0.844786 -0.0821901 0.423252 -21.6899 -0.222089 0.369589 -1.67731 -0.222086 0.369576 104.151 1.37604 -73.7579 48.5815 65.421 -69.1111 -12.48 -13.7846 -110.948 -13.6021 -0.404482 -1.77769 -76.6788 -8.48931 100.132 -69.6722 -45.4165 -89.1942 28.2136 -3.63916 -120.049 -6.55799 -0.10112 -4.07997 9.99993 -2.95924 25.6704 16.8862 -11.439 -15.1675 
-131.02 13.7273 47.9705 -8.75369 -8.66042 -96.6268 -178.247 3.89457 96.9507 -23.9067 7.37202 6.40799 57.5114 0.23155 -22.4507 65.4973 -12.808 -5.96357 167.578 8.44938 65.6653 -33.8734 0.577767 -4.26022 69.1235 4.266 39.1058 71.2405 -0.0734543 23.0749 0.099046 7.2194 -89.7365 12.434 0.322272 0.489232 0.763061 0.343474 0.474558 -21.7715 0.160317 0.563449 -1.75884 0.160335 0.563479 104.359 1.76605 -72.7256 43.7339 66.762 -64.2567 -10.4665 -14.2934 -110.892 -13.1393 -0.393167 -1.75765 -76.6808 -6.34162 100.335 -67.2955 -42.9822 -78.2831 20.913 -5.23062 -129.258 -4.11067 -0.147973 -1.0241 7.08619 -4.64912 24.7654 19.5232 -12.4126 -14.1205 
-130.821 13.7677 48.0473 -9.74398 -8.84364 -97.3483 -178.83 3.06565 96.3338 -24.2125 6.63931 6.62242 58.0125 0.211078 -23.4638 65.278 -12.618 -5.52232 165.938 8.38383 64.4161 -34.3592 2.96546 -3.20414 69.7771 4.29794 40.0138 72.6134 0.416106 24.5333 0.127095 7.20678 -89.7624 12.4595 0.365618 0.432706 0.788486 0.384309 0.4162 -21.7463 0.218669 0.522572 -1.73363 0.218658 0.522592 103.837 3.71877 -74.4553 39.5981 68.0317 -58.4208 -7.07936 -15.4302 -110.286 -13.6329 -0.351163 -2.2524 -77.0313 -9.7309 98.9974 -53.6858 -38.0942 -64.5958 21.0675 -11.894 -132.216 0.443716 0.0180944 -0.291526 0.377763 -6.49804 31.8191 23.7037 -16.0856 -20.8483 
-130.593 13.7974 48.1192 -10.8158 -8.97834 -97.8246 -179.15 2.20724 96.0174 -24.4841 6.36307 6.80863 57.3982 0.0117045 -23.7924 65.8849 -12.9705 -6.02718 164.275 8.24685 63.4631 -35.1459 5.40746 -2.00667 70.1724 4.42462 40.9718 72.8201 0.6543 25.3258 0.0345735 7.28345 -89.771 12.3065 0.177405 0.437066 0.635511 0.196453 0.428806 -21.899 0.0378379 0.470167 -1.8864 0.0378347 0.470156 103.849 3.64261 -74.4076 39.9152 67.7264 -58.9859 -5.59636 -15.8758 -109.929 -14.4176 -0.323603 -2.64064 -78.0097 -12.6676 96.3719 -46.2325 -35.8561 -61.2329 19.5002 -9.98288 -129.148 6.11388 0.325473 1.21987 -0.138863 -6.33176 33.2596 24.143 -16.3306 -21.8235 
-130.626 13.8479 48.3344 -11.4678 -8.78942 -98.1694 -179.298 1.30024 95.6061 -24.1208 6.85799 6.7359 58.1076 0.186543 -22.9052 65.2458 -12.7907 -6.28328 163.644 8.08775 62.917 -35.3494 5.33428 -1.64864 70.2425 4.42722 40.8225 73.5896 0.438933 24.3513 -0.0444337 7.28621 -89.7696 12.3011 0.0209769 0.457548 0.630104 0.0411327 0.456219 -21.9044 -0.117499 0.442739 -1.8918 -0.117507 0.442722 103.586 2.94054 -75.7719 33.4424 67.0472 -53.4579 -5.88562 -15.2604 -109.728 -15.2749 -0.384232 -2.31642 -78.344 -13.3617 95.4582 -45.4208 -39.3781 -62.7742 13.0109 -2.90811 -128.246 6.20409 0.300442 0.840516 -2.44917 -6.73426 35.6661 25.6611 -17.3965 -24.4287 
-130.676 13.853 48.584 -12.0683 -8.79642 -98.5848 -179.617 0.530457 95.1342 -23.7229 6.01381 6.65207 57.6817 0.191459 -23.7297 65.3807 -12.8805 -6.44188 163.335 7.86461 62.2102 -35.6617 4.79324 -1.73433 70.5327 4.35022 40.3715 74.9434 0.322583 23.629 -0.0886277 7.33176 -89.7314 12.2101 -0.0489409 0.541579 0.539095 -0.025043 0.543205 -21.9953 -0.209436 0.501831 -1.98261 -0.209432 0.501845 103.544 2.1213 -76.1386 34.5442 67.3941 -55.3726 -7.70822 -14.7325 -109.585 -14.8621 -0.384903 -2.229 -78.1643 -11.906 95.9081 -48.7335 -41.5833 -66.1762 13.658 -2.58995 -128.563 3.46153 0.110562 -0.493677 -2.38746 -7.11767 35.0875 24.7915 -17.3616 -23.8884 
-130.693 13.8783 48.6528 -12.6813 -9.16459 -98.8567 -179.917 -0.000587562 94.8654 -23.8284 4.9678 6.70244 58.092 0.276607 -24.6338 65.1788 -12.5614 -5.44239 162.864 7.49327 61.6619 -35.9465 5.05991 -1.63391 70.7067 4.4647 40.6762 72.1152 0.242645 24.0312 -0.0864669 7.32873 -89.7074 12.2162 -0.0333208 0.587824 0.54515 -0.0074292 0.588713 -21.989 -0.208444 0.550643 -1.97637 -0.20844 0.55064 103.542 1.78148 -76.2169 31.5874 67.2808 -52.6275 -7.74206 -14.5773 -109.62 -15.3828 -0.397171 -2.2381 -77.8742 -10.1513 96.6546 -56.1201 -43.3875 -72.9969 13.7806 0.17102 -126.055 -0.260143 -0.0337627 -0.928388 -6.0217 -9.15201 37.1572 27.0544 -19.6525 -26.3427 
-130.581 13.8727 48.6325 -13.1199 -9.65129 -99.2317 179.831 -0.0479279 94.5963 -24.7066 2.28708 6.74966 56.5567 0.0899888 -25.9772 64.2304 -11.8556 -3.84844 162.184 7.42273 61.0956 -36.2931 5.47142 -1.18289 70.8065 4.54674 40.9509 73.8873 -0.10816 22.4031 -0.070742 7.2888 -89.6788 12.2948 0.0116281 0.638314 0.623714 0.0397179 0.63716 -21.9103 -0.180742 0.612283 -1.89763 -0.180741 0.612295 103.22 2.434 -77.6446 28.6912 67.6421 -47.6428 -8.51341 -14.457 -110.709 -15.5106 -0.430054 -2.01234 -77.0854 -9.1641 98.9372 -53.3048 -36.7939 -74.8817 12.7004 1.78892 -118.797 1.11003 -0.0338415 -2.2674 -11.5188 -12.1514 42.2425 30.2411 -23.6124 -31.6633 
-130.176 14.0215 48.6497 -13.5893 -9.90048 -99.243 179.802 -0.415916 95.2204 -23.5652 -0.373497 6.31168 41.1326 -1.19252 -25.36 58.1891 -10.3595 -7.55966 162.203 7.96364 60.7985 -38.1607 6.16021 -1.00987 71.3385 4.93713 42.055 73.7354 0.295849 23.8185 0.211986 7.54112 -89.3931 11.7866 0.706936 1.13518 0.115431 0.756186 1.10298 -22.4162 0.333096 1.29515 -2.40358 0.333121 1.29512 104.92 -4.94579 -72.6135 37.5395 70.6403 -60.6765 -11.2187 -14.1152 -113.502 -11.5517 -0.335382 -1.87349 -75.5355 -10.7439 103.142 -46.7276 -30.3251 -84.1163 18.2152 -2.29363 -115.875 -2.46023 -0.0928175 -1.38368 -2.70544 -9.52416 30.2106 25.5805 -18.8156 -22.4947 
